PathFileType	4	(X/Y/Z)	 s09c0101.trc
DataRate	CameraRate	NumFrames	NumMarkers	Units	OrigDataRate	OrigDataStartFrame	OrigNumFrames
200	200	4	50	mm	200	1001	2000
Frame#	Time	racr			lacr			c7			jug			rlel			rdr			llel			ldr			s2			lic			ric			lasi			rasi			rpsi			lpsi			rgt			lgt			rth1			rth2			rth3			rth4			rlfc			rmfc			rsh1			rsh2			rsh3			rsh4			rlmal			rmmal			rcal			rtoe			rmt5			lth1			lth2			lth4			lth3			llfc			lmfc			llmal			lmmal			lcal			lmt5			lsh1			lsh2			lsh3			lsh4			ltoe			SBIKE			LBIKE			RBIKE			
		X1	Y1	Z1	X2	Y2	Z2	X3	Y3	Z3	X4	Y4	Z4	X5	Y5	Z5	X6	Y6	Z6	X7	Y7	Z7	X8	Y8	Z8	X9	Y9	Z9	X10	Y10	Z10	X11	Y11	Z11	X12	Y12	Z12	X13	Y13	Z13	X14	Y14	Z14	X15	Y15	Z15	X16	Y16	Z16	X17	Y17	Z17	X18	Y18	Z18	X19	Y19	Z19	X20	Y20	Z20	X21	Y21	Z21	X22	Y22	Z22	X23	Y23	Z23	X24	Y24	Z24	X25	Y25	Z25	X26	Y26	Z26	X27	Y27	Z27	X28	Y28	Z28	X29	Y29	Z29	X30	Y30	Z30	X31	Y31	Z31	X32	Y32	Z32	X33	Y33	Z33	X34	Y34	Z34	X35	Y35	Z35	X36	Y36	Z36	X37	Y37	Z37	X38	Y38	Z38	X39	Y39	Z39	X40	Y40	Z40	X41	Y41	Z41	X42	Y42	Z42	X43	Y43	Z43	X44	Y44	Z44	X45	Y45	Z45	X46	Y46	Z46	X47	Y47	Z47	X48	Y48	Z48	X49	Y49	Z49	X50	Y50	Z50	
1001	5.0050	538.135023	1248.157886	-104.283804	581.366461	1227.207164	-407.448382	535.664972	1276.268571	-260.684673	508.522249	1137.834148	-254.946055	473.022236	1016.893239	0.015480	676.122176	884.982629	-51.460118	529.791404	1019.794271	-581.936916	691.555951	875.768744	-461.574115	36.327485	1125.493688	-283.691378	176.578321	1103.919734	-425.995409	175.796570	1134.801742	-128.916094	214.666807	1051.350933	-395.939272	220.231448	1082.025449	-143.819052	64.671457	1162.221880	-226.588281	69.687687	1157.834252	-335.976093	167.354632	1015.475583	-81.385709	127.408057	962.639418	-446.818943	292.953505	963.118491	-97.331698	377.884370	948.380901	-114.533237	443.509801	888.845465	-119.261347	388.401904	973.109877	-139.726321	509.707864	806.992081	-154.648499	478.270340	784.804259	-250.403961	427.691246	755.656375	-113.547503	370.164726	686.902313	-117.939040	289.420963	655.822283	-105.163991	384.905486	665.662330	-148.586089	207.478659	595.349212	-91.631977	206.833167	598.596574	-168.853812	121.827632	614.524220	-124.109832	316.510417	434.735578	-131.380297	245.690511	476.676972	-66.316243	200.898274	845.914380	-445.462442	262.667026	787.944086	-437.061772	294.140645	805.869561	-426.716750	287.780919	701.097867	-428.123510	321.161444	611.095810	-407.795207	325.612653	597.988267	-311.402256	256.989598	249.436989	-414.062958	275.886859	258.209897	-342.731861	191.421644	215.700353	-377.717425	358.374449	161.550688	-433.746736	295.080451	513.158556	-431.279410	306.517136	427.959559	-422.932097	272.931997	345.806658	-420.630352	332.884384	427.103756	-392.529037	449.071214	176.527699	-362.519975	-65.697888	853.245258	-242.151040	20.723378	83.875603	-442.412452	21.034383	84.186267	-44.201142	
1002	5.0100	536.732502	1248.287990	-100.721478	583.501167	1227.794203	-403.902359	535.990900	1276.522298	-256.753817	508.822928	1138.108116	-251.761576	473.011425	1016.073285	1.773392	676.117148	884.888739	-50.880697	530.979575	1022.283838	-579.973276	692.007192	875.843028	-460.923162	35.517549	1126.793604	-285.841958	179.006667	1103.754519	-426.516884	175.426990	1136.352706	-130.425402	216.294403	1051.563420	-395.676830	220.201567	1083.368561	-144.133672	64.825252	1162.947023	-228.842173	71.048946	1158.007842	-338.420946	167.853668	1019.076531	-82.457907	129.252288	962.735984	-448.649425	294.262983	969.370460	-99.401725	379.133642	955.316278	-117.282532	445.575400	896.628265	-121.532390	388.998711	979.657691	-142.970108	513.832572	815.186435	-157.031453	482.240036	791.389224	-252.340078	431.839508	763.772286	-115.356212	376.536162	694.135022	-117.835210	295.361357	661.462134	-105.502641	390.791795	672.858698	-149.231916	214.039152	598.954658	-91.464607	213.209749	603.208274	-169.138278	127.623567	616.522975	-123.449907	326.641016	441.833945	-131.565271	254.894345	481.735486	-66.319156	199.361056	845.219438	-446.296050	259.898987	785.984708	-438.019763	291.803266	803.371215	-427.730744	283.227960	698.695249	-428.765811	314.110150	608.057835	-408.760203	319.740256	595.389644	-311.986463	248.956398	246.991522	-414.093589	268.423771	255.720106	-343.118925	183.156526	214.475781	-377.429184	349.078850	157.472472	-433.502848	288.193683	510.440551	-431.833926	299.244887	425.269046	-423.246231	265.406826	343.173592	-420.767570	325.840244	424.405655	-393.041587	440.040149	170.817240	-362.364029	-65.701554	853.101927	-241.901398	20.728072	83.913519	-442.410344	21.047304	84.191259	-44.199627	
1003	5.0150	535.398581	1248.484441	-97.240056	585.354774	1228.090894	-399.737441	536.308747	1276.760761	-252.804030	509.078487	1138.253558	-248.586550	473.300748	1015.527388	3.725021	676.523958	885.074100	-50.108924	532.438094	1024.685003	-577.678542	692.407573	875.900326	-460.177543	36.324346	1126.720142	-287.433581	181.284326	1103.777373	-426.885784	175.414370	1138.283216	-130.918441	217.770617	1051.834332	-395.192095	219.885074	1084.540101	-144.448417	64.969082	1163.924563	-230.864067	72.173940	1158.544542	-340.378575	168.495194	1023.229427	-83.220693	130.706224	962.617774	-449.900618	295.466297	975.532683	-101.310366	380.268446	962.131627	-119.882596	447.424781	904.136332	-123.869870	389.481280	984.914787	-146.849435	516.663565	823.786692	-158.189849	485.531803	798.006660	-253.944661	435.563486	771.256033	-117.057835	381.588279	700.565374	-118.509635	301.099866	666.430969	-105.771144	396.424621	678.937552	-149.262253	220.518224	601.938166	-91.248615	219.436375	606.423603	-168.990469	133.297747	617.670539	-122.727162	337.051331	448.440676	-131.694117	264.343765	486.254334	-66.290488	197.521529	844.939313	-447.144507	257.034356	784.465506	-438.939978	289.332864	801.247031	-428.811950	278.688753	696.820207	-429.504641	307.531315	605.715357	-409.581011	314.828957	593.434513	-312.555488	240.809199	245.160040	-414.160595	260.923606	253.956796	-343.581859	174.632948	213.927207	-376.933844	339.517210	154.153675	-433.334415	281.705058	508.328723	-432.110354	292.158723	423.140987	-423.395852	257.767833	341.296173	-420.745403	318.928050	422.140245	-393.337474	430.692855	165.653918	-362.261888	-65.700892	853.180250	-241.847458	20.728532	83.948712	-442.385932	21.037863	84.191690	-44.182174	
1004	5.0200	534.268861	1248.950538	-93.457762	587.172086	1228.190284	-395.534300	536.613563	1276.984949	-248.950889	509.317100	1138.270799	-245.297352	473.828344	1015.263771	5.944695	676.729989	884.548947	-49.159456	533.806294	1026.933702	-575.633272	692.826883	875.988883	-459.480717	37.062088	1127.320728	-289.179028	183.404986	1103.968011	-426.976447	175.236797	1140.380512	-132.005516	219.181706	1052.274475	-394.760293	219.334168	1085.654388	-144.653842	65.200871	1165.023974	-232.658074	73.281522	1159.167796	-342.111371	169.474580	1027.932695	-83.694078	131.974107	962.695526	-450.924954	296.588440	981.633361	-103.016963	380.952841	969.093525	-122.005172	448.289392	911.573877	-125.931901	389.801266	991.022328	-150.162985	520.020506	831.675513	-158.714092	488.321820	805.339707	-255.845805	438.983817	778.422579	-118.029208	385.977102	705.667573	-119.453477	306.446919	670.665027	-106.002886	401.717718	684.856447	-149.211888	226.834138	604.286777	-91.113807	224.466663	608.544442	-168.853480	139.004600	617.795032	-122.083283	347.534092	454.830342	-131.932752	273.888081	490.381258	-66.257893	195.691928	845.074662	-447.781796	253.977638	783.369040	-440.067562	286.946727	799.844801	-430.146533	274.161380	695.481676	-430.205823	301.660965	604.092096	-410.266671	310.689728	591.976190	-313.159408	232.206358	244.025965	-413.721680	252.927140	252.406017	-343.472825	165.918880	213.887523	-376.389518	329.614566	151.387298	-433.004625	275.657779	506.905470	-432.258056	285.237395	421.578451	-423.426872	250.028713	340.055269	-420.609715	312.129610	420.485801	-393.688369	421.104555	161.142284	-362.121131	-65.676749	853.255518	-241.751470	20.720669	84.008484	-442.359892	21.019392	84.224930	-44.184927	
